<svg width="686" height="347" viewBox="0 0 686 347" fill="none" xmlns="http://www.w3.org/2000/svg">
    <path
        d="M353.015 292.545C431.044 292.545 494.299 229.29 494.299 151.261C494.299 73.2316 431.044 9.97656 353.015 9.97656C274.986 9.97656 211.731 73.2316 211.731 151.261C211.731 229.29 274.986 292.545 353.015 292.545Z"
        fill="#F3C545" />
    <path fill-rule="evenodd" clip-rule="evenodd"
        d="M331.481 32.5442C267.528 32.5442 215.621 86.2572 215.621 152.595C215.621 218.932 267.528 272.645 331.481 272.645C395.434 272.645 447.34 218.932 447.34 152.595C447.34 86.2572 395.434 32.5442 331.481 32.5442ZM213.504 152.595C213.504 85.1587 266.289 30.4268 331.481 30.4268C396.673 30.4268 449.458 85.1587 449.458 152.595C449.458 220.031 396.673 274.763 331.481 274.763C266.289 274.763 213.504 220.031 213.504 152.595Z"
        fill="#2D2E2C" />
    <path fill-rule="evenodd" clip-rule="evenodd"
        d="M330.236 15.9596C252.072 15.9596 188.761 76.8812 188.761 151.967C188.761 227.053 252.072 287.974 330.236 287.974C408.4 287.974 471.711 227.053 471.711 151.967C471.711 76.8812 408.4 15.9596 330.236 15.9596ZM187.173 151.967C187.173 75.946 251.254 14.3713 330.236 14.3713C409.218 14.3713 473.3 75.946 473.3 151.967C473.3 227.988 409.218 289.563 330.236 289.563C251.254 289.563 187.173 227.988 187.173 151.967Z"
        fill="#2D2E2C" />
    <path fill-rule="evenodd" clip-rule="evenodd"
        d="M331.139 26.7775C259.83 26.7775 202.024 84.4792 202.024 155.656C202.024 226.832 259.83 284.534 331.139 284.534C402.448 284.534 460.254 226.832 460.254 155.656C460.254 84.4792 402.448 26.7775 331.139 26.7775ZM200.967 155.656C200.967 83.8938 259.248 25.7209 331.139 25.7209C403.03 25.7209 461.31 83.8938 461.31 155.656C461.31 227.418 403.03 285.591 331.139 285.591C259.248 285.591 200.967 227.418 200.967 155.656Z"
        fill="#2D2E2C" />
    <path fill-rule="evenodd" clip-rule="evenodd"
        d="M339.33 18.7496C268.576 18.7496 211.214 76.447 211.214 147.627C211.214 218.807 268.576 276.505 339.33 276.505C410.083 276.505 467.445 218.807 467.445 147.627C467.445 76.447 410.083 18.7496 339.33 18.7496ZM210.156 147.627C210.156 75.8685 267.986 17.6913 339.33 17.6913C410.673 17.6913 468.504 75.8685 468.504 147.627C468.504 219.386 410.673 277.563 339.33 277.563C267.986 277.563 210.156 219.386 210.156 147.627Z"
        fill="#2D2E2C" />
    <path
        d="M331.249 224.042C331.249 224.042 324.411 234.3 304.86 223.143M332.83 211.281C332.83 216.977 328.103 221.594 322.272 221.594C316.442 221.594 311.715 216.977 311.715 211.281C311.715 205.586 316.442 200.968 322.272 200.968C328.103 200.968 332.83 205.586 332.83 211.281Z"
        stroke="#2D2E2C" stroke-width="2" stroke-miterlimit="1.5" stroke-linecap="round" />
    <path
        d="M359.191 145.639C378.51 145.639 394.171 130.206 394.171 111.169C394.171 92.1312 378.51 76.6982 359.191 76.6982C339.873 76.6982 324.212 92.1312 324.212 111.169C324.212 130.206 339.873 145.639 359.191 145.639Z"
        fill="white" />
    <path
        d="M354.596 127.385C360.684 127.385 365.62 122.287 365.62 115.997C365.62 109.708 360.684 104.609 354.596 104.609C348.508 104.609 343.573 109.708 343.573 115.997C343.573 122.287 348.508 127.385 354.596 127.385Z"
        fill="#2D2E2C" />
    <path d="M365.736 64.4747C365.736 64.4747 394.916 61.378 391.976 81.0373" stroke="#2D2E2C"
        stroke-width="10" stroke-miterlimit="1.5" stroke-linecap="round" stroke-linejoin="round" />
    <path
        d="M310.649 139.232C326.446 139.232 339.252 126.613 339.252 111.045C339.252 95.4779 326.446 82.858 310.649 82.858C294.852 82.858 282.045 95.4779 282.045 111.045C282.045 126.613 294.852 139.232 310.649 139.232Z"
        fill="white" />
    <path
        d="M320.114 119.475C324.699 119.475 328.416 115.951 328.416 111.603C328.416 107.256 324.699 103.731 320.114 103.731C315.528 103.731 311.811 107.256 311.811 111.603C311.811 115.951 315.528 119.475 320.114 119.475Z"
        fill="#2D2E2C" />
    <path d="M276.25 82.8706C276.25 82.8706 287.632 56.6333 309.242 65.4602" stroke="#2D2E2C"
        stroke-width="10" stroke-miterlimit="1.5" stroke-linecap="round" stroke-linejoin="round" />
    <path
        d="M150.041 71.4981V68.2795C148.509 70.4252 146.517 73.0308 144.066 76.0962C143.453 77.9354 141.462 81.3073 138.091 86.2119C121.546 110.122 112.507 124.222 110.975 128.514L104.541 140.009C87.9953 163.306 78.8034 177.253 76.965 181.851C76.0458 183.077 74.9734 184.304 73.7478 185.53C72.5222 186.449 71.603 187.369 70.9902 188.288C70.3774 188.902 70.3774 189.361 70.9902 189.668C71.9094 189.668 73.135 189.515 74.667 189.208C76.199 188.595 78.497 188.288 81.5609 188.288L105.46 183.69C114.958 183.69 122.159 182.004 127.061 178.633C129.206 178.02 131.504 172.349 133.955 161.62C133.955 155.183 134.568 150.738 135.793 148.285L138.551 124.835C140.389 122.996 141.308 121.464 141.308 120.237V117.938C142.534 104.451 143.3 96.3276 143.606 93.5687L150.041 71.4981ZM121.086 244.844L122.005 230.591C122.925 224.766 122.925 221.854 122.005 221.854C116.797 221.854 107.298 224.92 93.5104 231.05C79.7226 237.181 71.9094 240.553 70.071 241.166C68.2326 241.779 66.8539 242.239 65.9347 242.545C63.1771 244.078 61.0323 244.844 59.5003 244.844C57.0491 246.377 53.832 246.99 49.8488 246.684C45.8656 246.071 43.108 245.151 41.576 243.925C40.3505 242.392 38.9717 241.319 37.4397 240.706C36.2141 239.787 34.9885 239.327 33.7629 239.327C32.8437 239.02 32.2309 239.02 31.9245 239.327C31.6181 239.633 30.3925 238.867 28.2478 237.028C26.103 235.189 24.4178 233.656 23.1922 232.43C21.9666 230.897 19.975 229.518 17.2174 228.292L13.0811 223.693C13.0811 222.467 12.0087 220.935 9.8639 219.095C8.63831 215.417 8.02551 212.505 8.02551 210.359C7.71911 207.907 10.1703 199.324 15.3791 184.61C18.443 181.545 20.4346 178.02 21.3538 174.035C22.5794 173.421 23.4986 172.195 24.1114 170.356C25.6434 170.356 27.7882 167.904 30.5457 162.999C34.5289 155.336 36.6737 151.351 36.9801 151.044L42.4952 144.607C42.4952 143.381 43.7208 140.929 46.172 137.25C48.9296 133.572 50.9212 131.426 52.1468 130.813C50.9212 130.813 51.9936 128.207 55.3639 122.996C59.0407 117.479 61.3387 114.26 62.2579 113.34C63.1771 112.114 64.5559 109.662 66.3943 105.983C67.6198 104.451 68.539 102.918 69.1518 101.385C70.071 99.5462 71.9094 97.2472 74.667 94.4883C75.8926 93.2622 78.8034 88.5109 83.3993 80.2344L96.268 63.6814C98.1064 59.0834 101.477 54.3321 106.379 49.4275C106.992 47.8948 110.362 43.7566 116.49 37.0128C122.925 30.269 127.827 26.1307 131.197 24.598C133.649 22.7588 134.874 21.3794 134.874 20.4598C135.181 20.1533 137.019 20 140.389 20C144.066 20 146.67 20.3065 148.202 20.9196C150.041 21.2261 154.79 24.7513 162.45 31.4951C163.369 30.882 165.514 30.5755 168.884 30.5755C178.076 30.5755 185.736 33.6409 191.864 39.7716L202.435 47.1285C203.967 47.7415 203.66 51.1134 201.516 57.2442C194.468 75.6364 188.187 103.071 182.672 139.549C180.834 154.876 179.915 162.999 179.915 163.919C180.221 164.225 182.825 164.379 187.728 164.379L209.788 162.999C214.384 162.999 217.601 163.306 219.44 163.919C221.278 164.532 223.729 165.911 226.793 168.057C230.164 170.203 232.615 172.502 234.147 174.954C234.147 176.18 235.219 177.406 237.364 178.633C237.364 180.472 237.977 182.005 239.202 183.231L242.879 185.07C242.879 185.683 244.564 188.442 247.935 193.346C254.982 198.557 254.676 201.776 247.016 203.002C241.501 200.55 234.3 200.09 225.415 201.623C223.576 201.623 219.593 202.542 213.465 204.382C190.179 207.447 177.157 209.899 174.399 211.739C174.093 211.739 173.327 214.497 172.101 220.015C172.101 225.839 171.642 229.364 170.723 230.591C170.11 238.867 169.65 252.201 169.344 270.594C169.344 288.679 169.497 299.101 169.803 301.86C170.416 302.473 170.723 305.539 170.723 311.056C171.642 312.896 172.101 315.195 172.101 317.953C172.714 319.18 172.255 321.172 170.723 323.931C170.11 325.77 168.578 326.383 166.127 325.77C160.612 325.77 156.628 325.464 154.177 324.85C146.211 324.85 141.308 323.778 139.47 321.632C138.244 321.632 135.181 320.406 130.278 317.953C130.278 316.727 129.053 315.348 126.601 313.815C124.15 311.976 122.618 311.363 122.005 311.976L118.329 311.056C117.103 307.378 116.49 302.78 116.49 297.262C118.022 273.352 119.248 260.938 120.167 260.018V253.121C120.78 251.588 121.086 248.829 121.086 244.844Z"
        fill="black" />
    <path fill-rule="evenodd" clip-rule="evenodd"
        d="M70.9902 188.288C70.3774 188.902 70.3774 189.361 70.9902 189.668C71.3712 189.668 71.8049 189.642 72.2912 189.589C72.4673 189.57 72.6504 189.547 72.8403 189.521C73.3911 189.446 74 189.342 74.667 189.208C75.1052 189.033 75.6061 188.882 76.1696 188.757C76.3853 188.709 76.6101 188.665 76.8441 188.625C77.3535 188.536 77.9064 188.465 78.5027 188.412C79.4194 188.33 80.4388 188.288 81.5609 188.288L105.46 183.69C114.958 183.69 122.159 182.004 127.061 178.633C129.206 178.02 131.504 172.349 133.955 161.62C133.955 155.183 134.568 150.738 135.793 148.285L138.551 124.835C140.389 122.996 141.308 121.464 141.308 120.237V117.938C142.534 104.451 143.3 96.3276 143.606 93.5687L150.041 71.4981V68.2795C149.458 69.0963 148.808 69.9797 148.091 70.9298C147.951 71.1167 147.807 71.3061 147.661 71.4981C146.599 72.8945 145.401 74.4272 144.066 76.0962C143.453 77.9354 141.462 81.3073 138.091 86.2119C137.699 86.7787 137.311 87.34 136.927 87.8957C121.122 110.785 112.471 124.324 110.975 128.514L104.541 140.009C89.4154 161.306 80.4355 174.79 77.6009 180.461C77.3347 180.993 77.1228 181.457 76.965 181.851C76.5983 182.34 76.2071 182.83 75.7916 183.319C75.2091 184.005 74.5787 184.69 73.9003 185.376C73.8497 185.427 73.7989 185.479 73.7478 185.53C73.6028 185.638 73.462 185.747 73.3256 185.856C73.061 186.067 72.8126 186.278 72.5803 186.489C71.92 187.089 71.3899 187.689 70.9902 188.288ZM134.388 105.79C130.929 110.917 128.014 115.331 125.638 119.037C123.413 122.508 121.699 125.3 120.468 127.442C119.155 129.726 118.629 130.868 118.509 131.203L118.284 131.836L111.312 144.291L111.063 144.641C102.812 156.259 96.4391 165.484 91.9175 172.344C90.183 174.976 88.7816 177.172 87.6752 178.965L104.697 175.69H105.46C114.155 175.69 119.452 174.122 122.454 172.091C122.6 171.8 122.777 171.414 122.979 170.915C123.838 168.796 124.845 165.455 125.959 160.691C126.004 155.301 126.463 150.15 127.984 146.198L130.93 121.144L132.893 119.18C133.055 119.017 133.193 118.872 133.308 118.745V117.576L133.341 117.214C133.737 112.856 134.086 109.046 134.388 105.79ZM113.086 244.587L113.923 231.61C113.762 231.661 113.598 231.713 113.432 231.767C109.051 233.18 103.512 235.358 96.7608 238.36C83.2418 244.371 74.9163 247.983 72.6019 248.755L69.1397 249.91C67.0001 251.054 64.5214 252.155 61.9503 252.617C58.0151 254.521 53.6087 254.997 49.2349 254.66L48.932 254.637L48.6318 254.591C44.4388 253.945 39.8578 252.796 36.5771 250.171L35.8831 249.615L35.328 248.921C34.8063 248.269 34.4974 248.146 34.468 248.134L33.4848 247.74L32.9337 247.327H32.8225C31.0131 247.544 29.5663 247.121 29.2226 247.018C28.0067 246.653 27.0425 246.083 26.5342 245.765C25.3973 245.054 24.1873 244.085 23.0401 243.101C20.8233 241.2 18.9655 239.517 17.5341 238.085L17.2208 237.772L16.9441 237.426C16.8343 237.289 16.1266 236.562 13.9671 235.601L12.4097 234.909L5.08107 226.762V225.546C4.9578 225.432 4.81676 225.306 4.65621 225.168L2.9744 223.726L2.27409 221.624C1.00779 217.824 0.0955897 214.085 0.0293699 210.745C-0.0920476 208.947 0.210868 207.124 0.459706 205.844C0.78937 204.148 1.2977 202.141 1.94164 199.886C3.23408 195.36 5.21225 189.357 7.83766 181.94L8.44157 180.234L9.72092 178.954C11.7914 176.883 12.9967 174.672 13.5585 172.236L14.4053 168.565L16.6498 167.443L18.3445 162.356H21.5403C22.048 161.643 22.7053 160.613 23.5099 159.189C25.4763 155.407 27.0085 152.494 28.0972 150.471C28.6438 149.456 29.1024 148.62 29.4589 147.996C29.6333 147.691 29.8173 147.376 29.9942 147.093C30.0807 146.955 30.2026 146.764 30.3463 146.559L30.3542 146.547C30.4165 146.458 30.6263 146.157 30.9444 145.793L35.1499 140.885C35.5074 139.813 35.9406 138.908 36.2584 138.272C37.081 136.626 38.2018 134.784 39.5147 132.814L39.6378 132.629L39.771 132.452C41.2347 130.499 42.609 128.799 43.8703 127.44C43.9605 127.343 44.0546 127.242 44.1524 127.139C44.3298 126.56 44.5152 126.103 44.634 125.814C45.4711 123.78 46.9339 121.3 48.6465 118.652L48.6762 118.606L48.7066 118.56C50.5655 115.77 52.1131 113.506 53.3341 111.796C54.2169 110.559 55.1658 109.27 56.0332 108.29C56.5481 107.519 57.5895 105.706 59.2382 102.407L59.617 101.649L60.1462 100.987C60.9708 99.9561 61.4515 99.0959 61.7236 98.4155L61.8471 98.1066L61.9958 97.809C63.5042 94.7907 66.0862 91.7568 69.0089 88.8328C68.9504 88.8913 68.9698 88.8636 69.0769 88.7109C69.298 88.3959 69.8926 87.5483 70.9476 85.8261C72.3166 83.5915 74.1303 80.4475 76.4053 76.3506L76.7048 75.8113L89.304 59.6049C91.5882 54.4061 95.2239 49.4297 99.858 44.6485C100.191 44.0866 100.53 43.589 100.809 43.1913C101.458 42.268 102.258 41.2347 103.164 40.1223C104.981 37.8904 107.466 35.0483 110.57 31.6327L110.635 31.5607L110.702 31.4903C116.654 25.2518 122.149 20.2768 126.874 17.8103V17.1472L129.216 14.8042C130.406 13.6136 131.67 13.0873 132.16 12.8964C132.784 12.6537 133.342 12.5162 133.714 12.4364C134.465 12.2754 135.214 12.193 135.818 12.1426C137.069 12.0383 138.631 12 140.389 12C143.876 12 147.546 12.2265 150.516 13.2477C152.052 13.664 153.346 14.3705 154.149 14.8377C155.33 15.5245 156.6 16.3961 157.911 17.3696C159.806 18.7763 162.042 20.5854 164.596 22.766C165.931 22.6284 167.38 22.5755 168.884 22.5755C179.8 22.5755 189.349 26.2138 196.988 33.5909L206.581 40.2676C209.015 41.6598 210.312 43.8883 210.886 45.7538C211.477 47.6751 211.44 49.5288 211.321 50.8411C211.077 53.5315 210.196 56.657 209.067 59.8859L209.028 59.9968L208.986 60.1065C202.26 77.6615 196.086 104.375 190.601 140.624C189.813 147.188 189.197 152.411 188.751 156.299L209.538 154.999H209.788C214.388 154.999 218.778 155.265 221.971 156.33C224.895 157.305 228.064 159.19 231.241 161.406C235.192 163.943 238.604 166.99 240.932 170.716L241.652 171.869L245.364 173.991V177.368L250.879 180.127V183.279C250.908 183.327 250.939 183.377 250.97 183.429C251.591 184.444 252.528 185.88 253.813 187.77C255.413 189.032 256.904 190.402 258.09 191.885C259.413 193.54 261.324 196.542 260.954 200.427C260.536 204.827 257.555 207.426 255.28 208.695C253.089 209.918 250.566 210.536 248.28 210.902L245.935 211.277L243.765 210.312C240.247 208.748 234.824 208.118 226.774 209.506L226.1 209.623H225.415C225.424 209.623 225.417 209.624 225.391 209.626C225.245 209.643 224.5 209.726 222.848 210.107C221.091 210.513 218.744 211.15 215.765 212.044L215.148 212.229L214.509 212.313C202.919 213.839 194.011 215.196 187.715 216.382C184.749 216.94 182.467 217.442 180.806 217.88C180.6 218.723 180.364 219.731 180.098 220.914C180.076 223.618 179.954 226.032 179.69 228.061C179.543 229.188 179.332 230.356 179.009 231.469C178.904 231.83 178.77 232.249 178.594 232.702C178.052 240.818 177.631 253.434 177.344 270.66C177.344 286.731 177.473 296.234 177.668 299.813C177.823 300.263 177.911 300.616 177.959 300.809L177.967 300.84C178.215 301.834 178.359 302.878 178.453 303.823C178.608 305.369 178.688 307.256 178.713 309.415C179.564 311.73 179.97 314.175 180.074 316.633C180.572 318.748 180.345 320.722 180.012 322.166C179.594 323.974 178.841 325.713 177.998 327.298C176.984 329.718 175.083 331.998 172.086 333.197C169.625 334.183 167.205 334.113 165.285 333.768C160.584 333.742 156.457 333.495 153.275 332.846C149.368 332.809 145.826 332.52 142.815 331.861C140.681 331.394 138.129 330.6 135.883 329.058C135.032 328.808 134.15 328.487 133.281 328.14C131.453 327.408 129.238 326.378 126.699 325.108L122.278 322.897V320.547L122.072 320.418L121.8 320.214C121.77 320.192 121.742 320.17 121.713 320.149L112.127 317.752L110.739 313.585C109.153 308.826 108.49 303.307 108.49 297.262V297.006L108.507 296.751C109.274 284.771 109.971 275.58 110.597 269.233C110.909 266.078 111.215 263.502 111.522 261.593C111.672 260.657 111.849 259.711 112.07 258.87C112.099 258.762 112.131 258.644 112.167 258.518V251.581L112.713 250.215C112.71 250.214 112.81 249.876 112.905 249.019C113.015 248.029 113.086 246.657 113.086 244.844V244.587ZM120.167 260.018C119.248 260.938 118.022 273.352 116.49 297.262C116.49 300.353 116.683 303.155 117.067 305.669C117.154 306.237 117.251 306.791 117.358 307.33C117.621 308.662 117.945 309.904 118.329 311.056L122.005 311.976C122.618 311.363 124.15 311.976 126.601 313.815C129.053 315.348 130.278 316.727 130.278 317.953C135.181 320.406 138.244 321.632 139.47 321.632C141.308 323.778 146.211 324.85 154.177 324.85C156.628 325.464 160.612 325.77 166.127 325.77C168.578 326.383 170.11 325.77 170.723 323.931C172.255 321.172 172.714 319.18 172.101 317.953C172.101 315.195 171.642 312.896 170.723 311.056C170.723 305.539 170.416 302.473 169.803 301.86C169.497 299.101 169.344 288.679 169.344 270.594C169.65 252.201 170.11 238.867 170.723 230.591C171.642 229.364 172.101 225.839 172.101 220.015C173.327 214.497 174.093 211.739 174.399 211.739C177.157 209.899 190.179 207.447 213.465 204.382C219.593 202.542 223.576 201.623 225.415 201.623C234.3 200.09 241.501 200.55 247.016 203.002C254.676 201.776 254.982 198.557 247.935 193.346C244.564 188.442 242.879 185.683 242.879 185.07L239.202 183.231C237.977 182.005 237.364 180.472 237.364 178.633C235.219 177.406 234.147 176.18 234.147 174.954C232.615 172.502 230.164 170.203 226.793 168.057C223.729 165.911 221.278 164.532 219.44 163.919C217.601 163.306 214.384 162.999 209.788 162.999L187.728 164.379C182.825 164.379 180.221 164.225 179.915 163.919C179.915 162.999 180.834 154.876 182.672 139.549C188.187 103.071 194.468 75.6364 201.516 57.2442C203.66 51.1134 203.967 47.7415 202.435 47.1285L191.864 39.7716C185.736 33.6409 178.076 30.5755 168.884 30.5755C165.514 30.5755 163.369 30.882 162.45 31.4951C154.79 24.7513 150.041 21.2261 148.202 20.9196C146.67 20.3065 144.066 20 140.389 20C137.019 20 135.181 20.1533 134.874 20.4598C134.874 21.3794 133.649 22.7588 131.197 24.598C127.827 26.1307 122.925 30.269 116.49 37.0128C110.362 43.7566 106.992 47.8948 106.379 49.4275C101.477 54.3321 98.1064 59.0834 96.268 63.6814L83.3993 80.2344C78.8034 88.5109 75.8926 93.2622 74.667 94.4883C71.9094 97.2472 70.071 99.5462 69.1518 101.385C68.539 102.918 67.6198 104.451 66.3943 105.983C64.5559 109.662 63.1771 112.114 62.2579 113.34C61.3387 114.26 59.0407 117.479 55.3639 122.996C55.2701 123.141 55.178 123.284 55.0877 123.425C53.9512 122.938 52.882 122.813 52.1468 122.813L53.0774 126.753C52.6865 127.457 52.3763 128.069 52.1468 128.59C51.9102 129.126 51.7593 129.565 51.6939 129.908C51.5787 130.511 51.7297 130.813 52.1468 130.813C50.979 131.397 49.1158 133.373 46.5572 136.74C46.4305 136.907 46.3021 137.077 46.172 137.25C43.7208 140.929 42.4952 143.381 42.4952 144.607L36.9801 151.044C36.6737 151.351 34.5289 155.336 30.5457 162.999C27.7882 167.904 25.6434 170.356 24.1114 170.356C23.4986 172.195 22.5794 173.421 21.3538 174.035C20.4346 178.02 18.443 181.545 15.3791 184.61C10.1703 199.324 7.71911 207.907 8.02551 210.359C8.02551 212.505 8.63831 215.417 9.8639 219.095C12.0087 220.935 13.0811 222.467 13.0811 223.693L17.2174 228.292C19.975 229.518 21.9666 230.897 23.1922 232.43C24.4178 233.656 26.103 235.189 28.2478 237.028C30.3925 238.867 31.6181 239.633 31.9245 239.327C32.2309 239.02 32.8437 239.02 33.7629 239.327C34.9885 239.327 36.2141 239.787 37.4397 240.706C38.9717 241.319 40.3505 242.392 41.576 243.925C43.108 245.151 45.8656 246.071 49.8488 246.684C53.832 246.99 57.0491 246.377 59.5003 244.844C61.0323 244.844 63.1771 244.078 65.9347 242.545L70.071 241.166C71.9094 240.553 79.7226 237.181 93.5104 231.05C107.298 224.92 116.797 221.854 122.005 221.854C122.925 221.854 122.925 224.766 122.005 230.591L121.086 244.844C121.086 248.829 120.78 251.588 120.167 253.121V260.018ZM127.974 16.8705L127.971 16.8741C127.983 16.8604 127.985 16.8591 127.974 16.8705ZM114.688 223.822C114.688 223.822 114.691 223.843 114.693 223.89C114.688 223.847 114.688 223.822 114.688 223.822Z"
        fill="black" />
    <path
        d="M569.386 74.1161L569.706 70.9133C567.969 72.8962 565.728 75.2909 562.984 78.0975C562.192 79.8667 559.875 83.0239 556.034 87.5693C537.194 109.716 526.798 122.849 524.847 126.967L517.302 137.765C498.523 159.302 487.991 172.267 485.704 176.66C484.668 177.788 483.479 178.902 482.138 180C480.827 180.793 479.821 181.617 479.119 182.471C478.449 183.02 478.403 183.478 478.982 183.844C479.897 183.935 481.132 183.904 482.687 183.752C484.272 183.294 486.589 183.217 489.638 183.522L513.875 181.322C523.327 182.266 530.659 181.304 535.872 178.436C538.067 178.039 540.918 172.625 544.423 162.193C545.063 155.787 546.114 151.425 547.578 149.107L552.652 126.047C554.664 124.4 555.731 122.966 555.853 121.746L556.082 119.458C558.642 106.159 560.211 98.1526 560.79 95.4379L569.386 74.1161ZM523.346 243.726L525.678 229.634C527.171 223.93 527.461 221.033 526.546 220.941C521.363 220.424 511.607 222.53 497.278 227.26C482.949 231.99 474.839 234.568 472.949 234.996C471.059 235.423 469.641 235.743 468.696 235.957C465.8 237.208 463.59 237.757 462.065 237.605C459.474 238.887 456.212 239.177 452.279 238.476C448.376 237.47 445.724 236.281 444.321 234.909C443.254 233.262 441.989 232.057 440.525 231.295C439.397 230.258 438.223 229.679 437.004 229.557C436.12 229.16 435.51 229.099 435.174 229.374C434.839 229.649 433.696 228.764 431.744 226.721C429.793 224.678 428.268 222.985 427.171 221.643C426.104 219.996 424.259 218.426 421.637 216.932L417.978 211.945C418.1 210.725 417.185 209.093 415.234 207.05C414.38 203.268 414.06 200.31 414.273 198.174C414.212 195.704 417.504 187.407 424.149 173.284C427.503 170.538 429.835 167.228 431.145 163.354C432.426 162.866 433.462 161.738 434.255 159.968C435.779 160.121 438.157 157.894 441.389 153.287C446.114 146.058 448.644 142.306 448.979 142.031L455.107 136.174C455.229 134.954 456.692 132.636 459.497 129.219C462.606 125.833 464.801 123.896 466.082 123.407C464.862 123.286 466.188 120.799 470.06 115.949C474.267 110.824 476.873 107.85 477.879 107.026C478.916 105.898 480.532 103.594 482.727 100.117C484.098 98.7136 485.165 97.2799 485.928 95.8157C487.025 94.077 489.083 91.972 492.101 89.501C493.442 88.4027 496.811 83.9642 502.207 76.1855L516.657 60.9935C518.943 56.601 522.769 52.2082 528.135 47.8151C528.897 46.3509 532.662 42.5682 539.43 36.4668C546.502 30.3959 551.792 26.7654 555.298 25.5753C557.92 23.9888 559.276 22.7381 559.368 21.823C559.703 21.5485 561.548 21.5787 564.901 21.9137C568.56 22.2791 571.121 22.843 572.584 23.6053C574.383 24.093 578.758 28.0727 585.71 35.5445C586.686 35.0258 588.85 34.934 592.204 35.2689C601.35 36.1825 608.668 39.9941 614.156 46.7035L623.943 55.0746C625.407 55.8369 624.767 59.1616 622.023 65.0488C613.183 82.6495 604.206 109.324 595.093 145.073C591.74 160.142 590.018 168.133 589.927 169.048C590.201 169.384 592.777 169.795 597.655 170.282L619.744 171.102C624.317 171.559 627.488 172.184 629.256 172.977C631.024 173.77 633.326 175.386 636.162 177.825C639.302 180.296 641.513 182.827 642.794 185.419C642.672 186.639 643.617 187.966 645.629 189.399C645.446 191.229 645.904 192.815 647.001 194.157L650.477 196.353C650.416 196.963 651.819 199.875 654.685 205.091C661.18 210.976 660.555 214.149 652.811 214.607C647.567 211.619 640.448 210.446 631.454 211.088C629.625 210.905 625.57 211.424 619.289 212.645C595.814 213.381 582.613 214.527 579.686 216.083C579.381 216.053 578.345 218.722 576.577 224.09C575.998 229.886 575.19 233.348 574.154 234.476C572.721 242.651 570.939 255.874 568.806 274.144C567.008 292.14 566.125 302.526 566.155 305.302C566.704 305.973 566.704 309.053 566.156 314.544C566.888 316.465 567.117 318.798 566.842 321.544C567.33 322.825 566.675 324.762 564.876 327.354C564.084 329.124 562.498 329.581 560.12 328.728C554.632 328.18 550.7 327.479 548.321 326.625C540.395 325.833 535.623 324.278 534.007 321.961C532.788 321.839 529.861 320.314 525.226 317.387C525.348 316.167 524.266 314.672 521.979 312.904C519.723 310.83 518.259 310.068 517.589 310.617L514.021 309.336C513.168 305.554 513.015 300.918 513.563 295.428C517.464 271.788 519.917 259.557 520.923 258.733L521.609 251.87C522.371 250.406 522.95 247.691 523.346 243.726Z"
        fill="black" />
    <path fill-rule="evenodd" clip-rule="evenodd"
        d="M479.119 182.471C478.449 183.02 478.403 183.478 478.982 183.844C479.361 183.882 479.796 183.899 480.285 183.895C480.462 183.893 480.646 183.889 480.838 183.882C481.393 183.862 482.01 183.818 482.687 183.752C483.14 183.621 483.653 183.521 484.227 183.452C484.446 183.426 484.674 183.405 484.911 183.387C485.427 183.35 485.984 183.335 486.582 183.341C487.503 183.35 488.521 183.41 489.638 183.522L513.875 181.322C523.327 182.266 530.659 181.304 535.872 178.436C538.067 178.039 540.918 172.625 544.423 162.193C545.063 155.787 546.114 151.425 547.578 149.107L552.652 126.047C554.664 124.4 555.731 122.966 555.853 121.746L556.082 119.458C558.642 106.159 560.211 98.1526 560.79 95.4379L569.386 74.1161L569.706 70.9133C569.045 71.6682 568.311 72.4827 567.503 73.3568C567.345 73.5287 567.183 73.703 567.019 73.8795C565.823 75.1634 564.478 76.5694 562.984 78.0975C562.192 79.8667 559.875 83.0239 556.034 87.5693C555.587 88.0943 555.145 88.6142 554.708 89.1291C536.706 110.334 526.752 122.946 524.847 126.967L517.302 137.765C500.135 157.454 489.86 169.978 486.475 175.339C486.158 175.842 485.901 176.283 485.704 176.66C485.291 177.11 484.853 177.558 484.391 178.003C483.743 178.628 483.048 179.248 482.305 179.863C482.249 179.909 482.193 179.954 482.138 180C481.982 180.094 481.832 180.188 481.685 180.283C481.401 180.467 481.133 180.652 480.881 180.839C480.164 181.37 479.577 181.914 479.119 182.471ZM550.403 106.682C546.451 111.44 543.112 115.543 540.38 118.994C537.821 122.227 535.838 124.835 534.399 126.844C532.867 128.986 532.229 130.07 532.077 130.392L531.79 130.998L523.614 142.699L523.332 143.023C513.967 153.763 506.709 162.309 501.528 168.686C499.54 171.133 497.928 173.178 496.648 174.853L513.912 173.286L514.671 173.362C523.322 174.226 528.75 173.192 531.938 171.469C532.113 171.194 532.327 170.827 532.577 170.351C533.643 168.327 534.977 165.103 536.559 160.474C537.14 155.115 538.108 150.035 540.014 146.254L545.436 121.616L547.584 119.857C547.762 119.712 547.914 119.581 548.041 119.466L548.157 118.302L548.226 117.946C549.053 113.649 549.779 109.892 550.403 106.682ZM515.411 242.675L517.534 229.845C517.368 229.88 517.2 229.916 517.03 229.952C512.53 230.924 506.802 232.54 499.786 234.856C485.736 239.494 477.093 242.261 474.713 242.799L471.153 243.603C468.911 244.53 466.335 245.379 463.731 245.583C459.626 247.087 455.194 247.122 450.875 246.352L450.576 246.299L450.282 246.223C446.174 245.164 441.73 243.566 438.726 240.627L438.091 240.005L437.607 239.259C437.153 238.558 436.858 238.405 436.83 238.39L435.891 237.901L435.383 237.435L435.273 237.424C433.451 237.46 432.053 236.895 431.721 236.758C430.548 236.274 429.645 235.611 429.171 235.245C428.11 234.424 427.003 233.339 425.959 232.246C423.942 230.134 422.261 228.276 420.979 226.708L420.698 226.365L420.457 225.994C420.361 225.846 419.73 225.052 417.676 223.882L416.195 223.039L409.713 214.204L409.834 212.994C409.722 212.868 409.594 212.728 409.448 212.575L407.918 210.973L407.43 208.812C406.548 204.904 406.012 201.093 406.278 197.764C406.336 195.962 406.818 194.179 407.193 192.93C407.69 191.275 408.395 189.328 409.26 187.148C410.996 182.774 413.561 176.996 416.911 169.878L417.681 168.24L419.081 167.094C421.347 165.238 422.766 163.158 423.568 160.79L424.775 157.222L427.12 156.328L429.312 151.435L432.492 151.752C433.068 151.093 433.824 150.134 434.766 148.797C437.099 145.229 438.913 142.483 440.197 140.578C440.842 139.622 441.382 138.836 441.798 138.251C442.002 137.964 442.217 137.669 442.421 137.405C442.521 137.276 442.661 137.098 442.824 136.908L442.833 136.898C442.904 136.815 443.143 136.537 443.496 136.206L448.168 131.74C448.63 130.709 449.151 129.851 449.531 129.25C450.513 127.694 451.811 125.973 453.313 124.143L453.454 123.971L453.604 123.808C455.255 122.011 456.791 120.455 458.182 119.228C458.281 119.141 458.385 119.05 458.492 118.957C458.726 118.398 458.956 117.962 459.103 117.686C460.138 115.746 461.84 113.423 463.808 110.958L463.842 110.916L463.877 110.873C466.004 108.282 467.769 106.183 469.153 104.602C470.155 103.46 471.227 102.271 472.188 101.382C472.777 100.667 473.993 98.9656 475.961 95.847L476.414 95.1304L477.006 94.5245C477.929 93.5803 478.493 92.7722 478.831 92.1222L478.985 91.8271L479.162 91.5458C480.963 88.6924 483.834 85.9301 487.033 83.311C486.969 83.3634 486.991 83.3379 487.113 83.1965C487.364 82.905 488.04 82.1207 489.261 80.512C490.845 78.4245 492.962 75.4763 495.633 71.6258L495.985 71.1189L510.133 56.2451C512.922 51.299 517.034 46.7086 522.121 42.4117C522.508 41.8857 522.895 41.4242 523.212 41.0562C523.949 40.2019 524.848 39.2532 525.86 38.2364C527.89 36.1963 530.645 33.6151 534.073 30.525L534.145 30.4598L534.219 30.3964C540.762 24.7804 546.723 20.3761 551.671 18.3915L551.737 17.7316L554.3 15.6331C555.602 14.5666 556.912 14.1685 557.419 14.0274C558.064 13.8479 558.633 13.7665 559.011 13.724C559.774 13.6385 560.527 13.6309 561.134 13.6408C562.389 13.6614 563.947 13.7785 565.696 13.9533C569.166 14.2999 572.795 14.89 575.649 16.2012C577.136 16.7682 578.353 17.5998 579.106 18.1446C580.213 18.9452 581.39 19.9388 582.598 21.0378C584.344 22.6259 586.388 24.6482 588.714 27.072C590.056 27.0677 591.503 27.1591 592.999 27.3086C603.861 28.3935 613.001 32.9629 619.869 41.0627L628.751 48.6598C631.034 50.287 632.103 52.6333 632.489 54.5467C632.886 56.5172 632.666 58.3581 632.417 59.6521C631.906 62.3048 630.719 65.3273 629.274 68.428L629.225 68.5345L629.172 68.6395C620.734 85.439 611.936 111.407 602.875 146.931C601.439 153.385 600.307 158.52 599.477 162.345L620.29 163.117L620.539 163.142C625.116 163.599 629.458 164.3 632.529 165.677C635.342 166.938 638.308 169.129 641.249 171.649C644.928 174.566 648.02 177.937 649.966 181.876L650.569 183.096L654.051 185.576L653.715 188.936L658.929 192.229L658.616 195.366C658.64 195.416 658.665 195.469 658.691 195.524C659.208 196.596 659.997 198.118 661.089 200.126C662.556 201.541 663.902 203.052 664.935 204.646C666.087 206.424 667.691 209.601 666.937 213.43C666.082 217.767 662.858 220.057 660.468 221.094C658.167 222.092 655.594 222.457 653.284 222.593L650.913 222.734L648.85 221.558C645.504 219.652 640.172 218.486 632.023 219.068L631.34 219.116L630.659 219.048C630.668 219.049 630.661 219.049 630.635 219.05C630.488 219.051 629.739 219.06 628.057 219.275C626.268 219.505 623.87 219.905 620.816 220.498L620.184 220.621L619.54 220.642C607.856 221.008 598.857 221.473 592.474 222.027C589.467 222.288 587.146 222.56 585.45 222.83C585.162 223.649 584.827 224.629 584.444 225.78C584.154 228.468 583.792 230.858 583.328 232.851C583.069 233.957 582.744 235.098 582.311 236.174C582.171 236.523 581.996 236.926 581.776 237.359C580.43 245.381 578.758 257.893 576.759 275.005C575.163 290.997 574.346 300.466 574.184 304.047C574.294 304.509 574.346 304.869 574.375 305.066L574.38 305.098C574.528 306.112 574.567 307.165 574.567 308.115C574.567 309.668 574.459 311.553 574.27 313.705C574.887 316.092 575.048 318.566 574.907 321.022C575.192 323.176 574.77 325.118 574.295 326.521C573.7 328.28 572.778 329.935 571.781 331.428C570.532 333.735 568.413 335.815 565.312 336.711C562.765 337.446 560.365 337.137 558.488 336.602C553.813 336.11 549.731 335.453 546.629 334.491C542.745 334.066 539.25 333.426 536.319 332.471C534.242 331.795 531.782 330.751 529.7 328.993C528.877 328.66 528.032 328.254 527.201 327.821C525.456 326.912 523.354 325.666 520.954 324.15L516.775 321.51L517.008 319.173L516.816 319.024L516.565 318.794C516.538 318.769 516.512 318.744 516.485 318.72L507.185 315.382L506.218 311.098C505.113 306.205 505.002 300.647 505.603 294.633L505.628 294.378L505.67 294.125C507.624 282.281 509.231 273.205 510.485 266.951C511.109 263.843 511.669 261.31 512.164 259.441C512.407 258.525 512.678 257.601 512.981 256.787C513.02 256.682 513.064 256.567 513.112 256.445L513.802 249.543L514.481 248.238C514.478 248.237 514.611 247.91 514.791 247.067C514.999 246.093 515.206 244.735 515.386 242.931L515.411 242.675ZM520.923 258.733C519.917 259.557 517.464 271.788 513.563 295.428C513.256 298.503 513.169 301.31 513.302 303.85C513.332 304.424 513.373 304.985 513.425 305.532C513.555 306.884 513.754 308.152 514.021 309.336L517.589 310.617C518.259 310.068 519.723 310.83 521.979 312.904C524.266 314.672 525.348 316.167 525.226 317.387C529.861 320.314 532.788 321.839 534.007 321.961C535.623 324.278 540.395 325.833 548.321 326.625C550.7 327.479 554.632 328.18 560.12 328.728C562.498 329.581 564.084 329.124 564.876 327.354C566.675 324.762 567.33 322.825 566.842 321.544C567.117 318.798 566.888 316.465 566.156 314.544C566.704 309.053 566.704 305.973 566.155 305.302C566.125 302.526 567.008 292.14 568.806 274.144C570.939 255.874 572.721 242.651 574.154 234.476C575.19 233.348 575.998 229.886 576.577 224.09C578.345 218.722 579.381 216.053 579.686 216.083C582.613 214.527 595.814 213.381 619.289 212.645C625.57 211.424 629.625 210.905 631.454 211.088C640.448 210.446 647.567 211.619 652.811 214.607C660.555 214.149 661.18 210.976 654.685 205.091C651.819 199.875 650.416 196.963 650.477 196.353L647.001 194.157C645.904 192.815 645.446 191.229 645.629 189.399C643.617 187.966 642.672 186.639 642.794 185.419C641.513 182.827 639.302 180.296 636.162 177.825C633.326 175.386 631.024 173.77 629.256 172.977C627.488 172.184 624.317 171.559 619.744 171.102L597.655 170.282C592.777 169.795 590.201 169.384 589.927 169.048C590.018 168.133 591.74 160.142 595.093 145.073C604.206 109.324 613.183 82.6495 622.023 65.0488C624.767 59.1616 625.407 55.8369 623.943 55.0746L614.156 46.7035C608.668 39.9941 601.35 36.1825 592.204 35.2689C588.85 34.934 586.686 35.0258 585.71 35.5445C578.758 28.0727 574.383 24.093 572.584 23.6053C571.121 22.843 568.56 22.2791 564.901 21.9137C561.548 21.5787 559.703 21.5485 559.368 21.823C559.276 22.7381 557.92 23.9888 555.298 25.5753C551.792 26.7654 546.502 30.3959 539.43 36.4668C532.662 42.5682 528.897 46.3509 528.135 47.8151C522.769 52.2082 518.943 56.601 516.657 60.9935L502.207 76.1855C496.811 83.9642 493.442 88.4027 492.101 89.501C489.083 91.972 487.025 94.077 485.928 95.8157C485.165 97.2799 484.098 98.7136 482.727 100.117C480.532 103.594 478.916 105.898 477.879 107.026C476.873 107.85 474.267 110.824 470.06 115.949C469.952 116.084 469.846 116.217 469.742 116.349C468.66 115.751 467.609 115.52 466.877 115.447L467.411 119.46C466.952 120.122 466.583 120.7 466.303 121.195C466.014 121.705 465.82 122.127 465.721 122.462C465.547 123.051 465.667 123.366 466.082 123.407C464.862 123.873 462.811 125.653 459.931 128.749C459.788 128.903 459.644 129.059 459.497 129.219C456.692 132.636 455.229 134.954 455.107 136.174L448.979 142.031C448.644 142.306 446.114 146.058 441.389 153.287C438.157 157.894 435.779 160.121 434.255 159.968C433.462 161.738 432.426 162.866 431.145 163.354C429.835 167.228 427.503 170.538 424.149 173.284C417.504 187.407 414.212 195.704 414.273 198.174C414.06 200.31 414.38 203.268 415.234 207.05C417.185 209.093 418.1 210.725 417.978 211.945L421.637 216.932C424.259 218.426 426.104 219.996 427.171 221.643C428.268 222.985 429.793 224.678 431.744 226.721C433.696 228.764 434.839 229.649 435.174 229.374C435.51 229.099 436.12 229.16 437.004 229.557C438.223 229.679 439.397 230.258 440.525 231.295C441.989 232.057 443.254 233.262 444.321 234.909C445.724 236.281 448.376 237.47 452.279 238.476C456.212 239.177 459.474 238.887 462.065 237.605C463.59 237.757 465.8 237.208 468.696 235.957L472.949 234.996C474.839 234.568 482.949 231.99 497.278 227.26C511.607 222.53 521.363 220.424 526.546 220.941C527.461 221.033 527.171 223.93 525.678 229.634L523.346 243.726C522.95 247.691 522.371 250.406 521.609 251.87L520.923 258.733ZM552.859 17.5657L552.855 17.569C552.868 17.5565 552.87 17.5554 552.859 17.5657ZM519.069 222.172C519.069 222.172 519.07 222.193 519.067 222.24C519.067 222.197 519.069 222.172 519.069 222.172Z"
        fill="black" />
</svg>