<svg width="450" height="248" viewBox="0 0 450 248" fill="none" xmlns="http://www.w3.org/2000/svg">
<path fill-rule="evenodd" clip-rule="evenodd" d="M51.5611 214.01C37.3111 215.422 13.7046 204.234 6.72998 179.188C1.37579 159.963 4.74742 125.71 47.8453 109.244C47.8453 109.244 90.3332 113.35 90.2795 159.15C90.226 204.949 67.8476 212.394 51.5611 214.01Z" fill="#F3C545" stroke="#F3C545" stroke-width="6.93" stroke-miterlimit="1.5" stroke-linecap="round" stroke-linejoin="round"/>
<path fill-rule="evenodd" clip-rule="evenodd" d="M54.9612 109.649C31.6636 109.649 12.6757 131.271 12.6757 158.078C12.6757 184.884 31.6636 206.507 54.9612 206.507C78.2587 206.507 97.2466 184.884 97.2466 158.078C97.2466 131.271 78.2587 109.649 54.9612 109.649ZM11.7559 158.078C11.7559 130.883 31.0435 108.729 54.9612 108.729C78.8788 108.729 98.1664 130.883 98.1664 158.078C98.1664 185.272 78.8788 207.427 54.9612 207.427C31.0435 207.427 11.7559 185.272 11.7559 158.078Z" fill="#2D2E2C"/>
<path fill-rule="evenodd" clip-rule="evenodd" d="M54.1751 112.243C32.8881 112.243 15.4478 134.53 15.4478 162.28C15.4478 190.029 32.8881 212.316 54.1751 212.316C75.462 212.316 92.9024 190.029 92.9024 162.28C92.9024 134.53 75.462 112.243 54.1751 112.243ZM14.5293 162.28C14.5293 134.253 32.1778 111.324 54.1751 111.324C76.1724 111.324 93.8209 134.253 93.8209 162.28C93.8209 190.306 76.1724 213.235 54.1751 213.235C32.1778 213.235 14.5293 190.306 14.5293 162.28Z" fill="#2D2E2C"/>
<path fill-rule="evenodd" clip-rule="evenodd" d="M31.3587 126.359C25.1375 134.817 21.2757 146.523 21.2757 159.474C21.2757 172.424 25.1375 184.13 31.3587 192.588C37.58 201.046 46.1373 206.23 55.5472 206.23C64.9572 206.23 73.5145 201.046 79.7358 192.588C85.957 184.13 89.8188 172.424 89.8188 159.474C89.8188 146.523 85.957 134.817 79.7358 126.359C73.5145 117.901 64.9572 112.717 55.5472 112.717C46.1373 112.717 37.58 117.901 31.3587 126.359ZM30.6214 125.817C36.9695 117.187 45.7769 111.802 55.5472 111.802C65.3176 111.802 74.125 117.187 80.4731 125.817C86.8214 134.448 90.734 146.348 90.734 159.474C90.734 172.599 86.8214 184.5 80.4731 193.13C74.125 201.761 65.3176 207.146 55.5472 207.146C45.7769 207.146 36.9695 201.761 30.6214 193.13C24.2731 184.5 20.3605 172.599 20.3605 159.474C20.3605 146.348 24.2731 134.448 30.6214 125.817Z" fill="#2D2E2C"/>
<path d="M71.392 180.225C71.392 180.225 61.8007 193.098 44.5242 179.562C44.5242 179.562 46.2491 173.238 43.7324 172.661C43.7324 172.661 48.8491 180.691 37.4203 183.445" stroke="white" stroke-width="6.86" stroke-miterlimit="1.5" stroke-linecap="round" stroke-linejoin="round"/>
<path fill-rule="evenodd" clip-rule="evenodd" d="M70.6337 136.475C70.6337 136.475 79.4254 134.204 79.7663 146.765C80.1073 159.328 71.1618 157.624 70.7686 157.732C70.7686 157.732 61.5338 156.605 62.8527 145.92C64.0002 136.623 70.6337 136.475 70.6337 136.475Z" fill="white"/>
<path fill-rule="evenodd" clip-rule="evenodd" d="M75.4115 140.997C75.4115 140.997 79.3618 140.769 79.3677 146.098C79.3736 151.424 76.1572 150.405 75.9875 150.387C75.9875 150.387 72.4951 148.903 72.8976 145.557C73.3001 142.213 74.6587 141.064 75.4115 140.997Z" fill="#2D2E2C"/>
<path fill-rule="evenodd" clip-rule="evenodd" d="M56.3699 137.662C56.3699 137.662 67.4426 134.717 67.8721 151.005C68.3015 167.295 56.6098 164.637 56.3393 165.021C56.3393 165.021 44.9091 163.765 46.5701 149.909C48.0153 137.854 56.3699 137.662 56.3699 137.662Z" fill="white"/>
<path fill-rule="evenodd" clip-rule="evenodd" d="M61.5336 144.464C61.5336 144.464 65.9949 144.201 66.0016 150.199C66.0083 156.196 61.7487 154.893 61.7768 154.957C61.7768 154.957 58.2647 153.358 58.7178 149.591C59.1709 145.826 59.8965 144.791 61.5336 144.464Z" fill="#2D2E2C"/>
<path fill-rule="evenodd" clip-rule="evenodd" d="M14.0732 117.066C15.1804 98.5433 7.82537 64.4386 4.87012 64.2272C4.87012 64.2272 2.54928 59.8799 3.2167 58.0508C5.47915 51.8526 44.8093 41.6295 65.2563 48.9614C65.2563 48.9614 69.044 50.3593 69.118 54.0928C69.3532 65.9557 74.1174 102.712 76.1692 104.667C78.2212 106.622 79.2629 106.427 79.2629 106.427C79.2629 106.427 92.3411 105.283 91.8989 108.218C91.8989 108.218 93.9063 109.653 91.5377 112.173C91.5377 112.173 83.2443 118.998 68.2618 121.244C68.2618 121.244 9.11858 134.93 4.18889 131.372C4.18889 131.372 -2.13675 129.911 0.758633 123.49C0.758633 123.49 8.72759 119.086 12.8553 119.257C12.8553 119.257 14.0286 117.811 14.0732 117.066Z" fill="#106B95"/>
<mask id="mask0_2_332" style="mask-type:luminance" maskUnits="userSpaceOnUse" x="0" y="46" width="93" height="86">
<path d="M14.0732 117.066C15.1804 98.5433 7.82537 64.4386 4.87012 64.2272C4.87012 64.2272 2.54928 59.8799 3.2167 58.0508C5.47915 51.8526 44.8093 41.6295 65.2563 48.9614C65.2563 48.9614 69.044 50.3593 69.118 54.0928C69.3532 65.9557 74.1174 102.712 76.1692 104.667C78.2212 106.622 79.2629 106.427 79.2629 106.427C79.2629 106.427 92.3411 105.283 91.8989 108.218C91.8989 108.218 93.9063 109.653 91.5377 112.173C91.5377 112.173 83.2443 118.998 68.2618 121.244C68.2618 121.244 9.11858 134.93 4.18889 131.372C4.18889 131.372 -2.13675 129.911 0.758633 123.49C0.758633 123.49 8.72759 119.086 12.8553 119.257C12.8553 119.257 14.0286 117.811 14.0732 117.066Z" fill="white"/>
</mask>
<g mask="url(#mask0_2_332)">
<path fill-rule="evenodd" clip-rule="evenodd" d="M3.46603 60.8343C6.22912 66.2381 60.655 62.2433 66.6636 50.1486C66.6636 50.1486 68.2919 50.7301 68.3325 51.4302C68.9403 61.8804 11.4498 69.7055 5.04849 64.3183C5.04849 64.3183 2.88533 59.6986 3.46603 60.8343Z" fill="white"/>
</g>
<path fill-rule="evenodd" clip-rule="evenodd" d="M14.5105 117.165C16.073 119.584 54.201 128.537 76.2367 104.69C76.2367 104.69 78.1365 105.594 77.7026 106.362C69.6417 120.624 27.4054 129.144 13.2766 119.248C13.2766 119.248 14.0458 116.445 14.5105 117.165Z" fill="white"/>
<path fill-rule="evenodd" clip-rule="evenodd" d="M104.163 152.813C103.985 152.799 113.396 132.021 113.401 131.975L113.339 130.303C113.339 130.303 119.981 122.69 119.899 122.697C119.818 122.703 123.911 124.161 123.893 124.152C123.874 124.143 123.599 133.62 123.599 133.62L121.32 136.236L115.098 149.187C115.098 149.187 110.248 159.254 110.29 159.493C110.331 159.734 104.692 162.942 104.692 162.942C104.692 162.942 104.341 152.831 104.163 152.813Z" fill="white"/>
<path fill-rule="evenodd" clip-rule="evenodd" d="M113.464 130.347L113.524 131.97C113.524 131.976 113.524 131.982 113.523 131.988C113.522 131.998 113.519 132.01 113.518 132.014C113.517 132.015 113.517 132.016 113.516 132.018C113.516 132.018 113.516 132.019 113.515 132.02C113.515 132.022 113.514 132.024 113.513 132.026C113.511 132.03 113.509 132.035 113.507 132.041C113.502 132.052 113.495 132.068 113.486 132.088C113.468 132.129 113.441 132.189 113.407 132.266C113.337 132.421 113.236 132.647 113.107 132.933C112.899 133.397 112.618 134.021 112.285 134.761C112.207 134.934 112.126 135.114 112.042 135.299C111.162 137.254 109.991 139.855 108.826 142.456C107.66 145.057 106.5 147.657 105.643 149.607C105.215 150.582 104.862 151.395 104.622 151.964C104.502 152.248 104.411 152.471 104.352 152.622C104.323 152.697 104.303 152.753 104.292 152.789C104.294 152.796 104.297 152.803 104.298 152.809C104.306 152.836 104.314 152.871 104.32 152.91C104.333 152.989 104.346 153.102 104.36 153.242C104.386 153.522 104.415 153.92 104.444 154.396C104.502 155.347 104.562 156.614 104.618 157.879C104.673 159.144 104.722 160.409 104.758 161.357C104.776 161.831 104.79 162.226 104.8 162.503C104.803 162.593 104.806 162.67 104.808 162.734C104.828 162.722 104.85 162.71 104.873 162.697C105.027 162.609 105.247 162.482 105.511 162.33C106.039 162.026 106.742 161.618 107.444 161.202C108.146 160.786 108.845 160.363 109.366 160.03C109.627 159.863 109.841 159.719 109.988 159.611C110.062 159.556 110.116 159.513 110.149 159.481C110.158 159.474 110.164 159.467 110.168 159.462C110.169 159.457 110.17 159.453 110.17 159.45C110.173 159.436 110.177 159.421 110.182 159.406C110.191 159.376 110.205 159.338 110.222 159.293C110.256 159.204 110.307 159.082 110.371 158.932C110.501 158.633 110.687 158.219 110.912 157.73C111.361 156.752 111.963 155.471 112.567 154.197C113.171 152.924 113.776 151.658 114.23 150.71C114.457 150.236 114.646 149.842 114.779 149.566C114.845 149.429 114.897 149.32 114.933 149.247L114.987 149.134L121.209 136.183C121.214 136.173 121.22 136.163 121.227 136.155L123.477 133.572L123.488 133.209C123.496 132.95 123.506 132.58 123.519 132.136C123.545 131.247 123.58 130.063 123.616 128.879C123.651 127.695 123.687 126.511 123.716 125.623C123.73 125.18 123.742 124.81 123.751 124.552C123.756 124.422 123.76 124.321 123.763 124.251C123.763 124.246 123.763 124.242 123.764 124.237C123.74 124.229 123.713 124.219 123.682 124.208C123.572 124.169 123.413 124.113 123.223 124.045C122.844 123.91 122.336 123.728 121.83 123.546C121.325 123.364 120.821 123.181 120.449 123.044C120.263 122.975 120.109 122.917 120.004 122.876C119.98 122.867 119.959 122.859 119.94 122.851C119.939 122.853 119.937 122.855 119.935 122.858C119.89 122.914 119.822 122.997 119.735 123.1C119.561 123.309 119.308 123.606 119.002 123.962C118.391 124.675 117.568 125.627 116.743 126.578C115.918 127.529 115.09 128.481 114.468 129.194C114.158 129.551 113.898 129.849 113.717 130.057L113.464 130.347ZM119.784 122.651C119.775 122.663 119.762 122.68 119.743 122.704C119.7 122.758 119.633 122.839 119.546 122.942C119.373 123.149 119.121 123.446 118.815 123.802C118.204 124.514 117.382 125.465 116.557 126.416C115.732 127.368 114.904 128.319 114.282 129.033C113.972 129.389 113.713 129.687 113.531 129.895L113.246 130.222C113.246 130.222 113.246 130.222 113.339 130.303L113.246 130.222C113.225 130.246 113.215 130.276 113.216 130.308L113.277 131.952C113.272 131.962 113.267 131.974 113.26 131.989C113.243 132.029 113.216 132.089 113.182 132.166C113.113 132.321 113.011 132.546 112.883 132.832C112.674 133.296 112.394 133.918 112.061 134.657C111.983 134.831 111.902 135.011 111.818 135.198C110.938 137.152 109.766 139.754 108.601 142.356C107.435 144.957 106.275 147.557 105.418 149.508C104.989 150.484 104.636 151.297 104.395 151.868C104.275 152.153 104.182 152.378 104.123 152.533C104.093 152.61 104.07 152.672 104.056 152.715C104.05 152.736 104.044 152.758 104.04 152.776C104.039 152.784 104.036 152.801 104.038 152.82C104.039 152.829 104.041 152.851 104.055 152.875C104.058 152.879 104.061 152.884 104.065 152.889C104.068 152.902 104.072 152.922 104.077 152.95C104.088 153.021 104.101 153.127 104.114 153.265C104.141 153.541 104.169 153.936 104.198 154.411C104.256 155.36 104.316 156.625 104.371 157.889C104.426 159.154 104.476 160.418 104.512 161.366C104.529 161.84 104.544 162.235 104.554 162.512C104.559 162.65 104.563 162.759 104.565 162.833L104.569 162.946C104.569 162.946 104.569 162.946 104.692 162.942L104.569 162.946C104.571 162.989 104.595 163.028 104.632 163.049C104.67 163.07 104.716 163.07 104.753 163.049L104.692 162.942C104.753 163.049 104.753 163.049 104.753 163.049L104.754 163.049L104.754 163.048L104.817 163.013C104.858 162.989 104.919 162.955 104.996 162.91C105.15 162.822 105.37 162.696 105.634 162.544C106.163 162.239 106.867 161.83 107.569 161.414C108.272 160.998 108.974 160.573 109.499 160.237C109.761 160.069 109.981 159.923 110.134 159.809C110.211 159.753 110.274 159.703 110.318 159.661C110.34 159.64 110.361 159.618 110.377 159.596C110.385 159.584 110.395 159.57 110.402 159.552C110.407 159.539 110.413 159.519 110.413 159.494C110.414 159.49 110.415 159.485 110.418 159.478C110.424 159.456 110.436 159.424 110.452 159.382C110.484 159.297 110.533 159.179 110.598 159.03C110.726 158.733 110.911 158.321 111.136 157.833C111.584 156.856 112.186 155.576 112.79 154.303C113.393 153.03 113.998 151.764 114.452 150.817C114.679 150.343 114.868 149.949 115.001 149.673C115.028 149.618 115.052 149.567 115.074 149.522C115.106 149.454 115.133 149.397 115.155 149.353L115.209 149.241L115.209 149.24C115.209 149.24 115.209 149.24 115.098 149.187L115.209 149.24L115.209 149.24L121.424 136.304L123.692 133.701C123.711 133.679 123.722 133.652 123.722 133.624L123.599 133.62C123.722 133.624 123.722 133.624 123.722 133.624L123.734 133.216C123.742 132.957 123.753 132.587 123.766 132.143C123.792 131.255 123.827 130.07 123.862 128.886C123.898 127.702 123.934 126.518 123.962 125.631C123.976 125.188 123.988 124.818 123.998 124.56C124.002 124.431 124.006 124.33 124.009 124.262C124.011 124.228 124.012 124.202 124.013 124.186C124.013 124.177 124.014 124.172 124.014 124.17C124.014 124.168 124.014 124.17 124.014 124.173C124.013 124.174 124.012 124.181 124.01 124.189C124.008 124.195 124 124.212 123.993 124.222C123.979 124.238 123.938 124.256 123.896 124.263C123.935 124.239 124.002 124.174 123.992 124.08C123.976 124.061 123.951 124.044 123.947 124.041C123.929 124.037 123.909 124.038 123.889 124.041C123.9 124.034 123.909 124.03 123.913 124.03C123.917 124.031 123.923 124.032 123.925 124.033L123.928 124.034C123.928 124.034 123.929 124.034 123.929 124.034C123.93 124.034 123.93 124.034 123.929 124.034L123.923 124.032C123.916 124.03 123.905 124.026 123.891 124.021C123.862 124.011 123.819 123.996 123.764 123.976C123.654 123.937 123.496 123.881 123.306 123.813C122.926 123.678 122.419 123.496 121.914 123.314C121.409 123.132 120.906 122.95 120.534 122.813C120.348 122.744 120.196 122.687 120.093 122.647C120.041 122.626 120.003 122.611 119.98 122.601C119.978 122.6 119.977 122.6 119.976 122.599C119.945 122.575 119.909 122.572 119.889 122.574C119.883 122.574 119.87 122.576 119.856 122.581C119.842 122.586 119.812 122.6 119.791 122.636C119.788 122.641 119.786 122.646 119.784 122.651ZM110.412 159.499C110.412 159.499 110.412 159.499 110.412 159.499V159.499Z" fill="black"/>
<path fill-rule="evenodd" clip-rule="evenodd" d="M115.172 133.663C115.239 133.692 115.269 133.77 115.24 133.837L105.101 156.749L107.468 158.413L118.348 135.475C118.379 135.409 118.458 135.381 118.523 135.413C118.589 135.444 118.617 135.522 118.586 135.588L107.639 158.667C107.622 158.702 107.591 158.728 107.554 158.738C107.516 158.748 107.476 158.741 107.444 158.718L104.861 156.903C104.809 156.867 104.791 156.799 104.816 156.742L114.999 133.73C115.028 133.664 115.106 133.634 115.172 133.663Z" fill="#2D2E2C"/>
<path fill-rule="evenodd" clip-rule="evenodd" d="M7.50337 182.265C7.50337 182.265 6.94632 169.582 10.7331 169.417C14.5198 169.252 16.1851 177.086 16.394 177.032C16.6029 176.978 20.7095 166.911 26.0142 169.424C26.0142 169.424 28.8144 171.994 25.9678 175.056C25.9678 175.056 29.9712 170.338 33.0979 172.282C36.2244 174.223 31.4038 182.989 28.808 184.586C28.808 184.586 35.1423 184.14 35.3138 186.338C35.4853 188.538 35.013 195.219 23.7249 194.835C23.7249 194.835 13.8263 206.212 6.31093 198.348C6.31093 198.348 -0.655291 189.701 7.50337 182.265Z" fill="#2D2E2C"/>
<path fill-rule="evenodd" clip-rule="evenodd" d="M97.0533 162.797C97.0533 162.797 96.4962 150.113 100.283 149.948C104.07 149.783 105.735 157.618 105.944 157.564C106.153 157.51 110.259 147.443 115.564 149.956C115.564 149.956 118.364 152.525 115.518 155.588C115.518 155.588 119.521 150.87 122.648 152.814C125.774 154.755 120.954 163.521 118.358 165.118C118.358 165.118 124.692 164.672 124.864 166.869C125.035 169.069 124.563 175.751 113.275 175.367C113.275 175.367 103.376 186.744 95.8608 178.88C95.8608 178.88 88.8946 170.232 97.0533 162.797Z" fill="#2D2E2C"/>
<path fill-rule="evenodd" clip-rule="evenodd" d="M121.153 136.222L123.776 133.64L123.941 124.318L119.882 122.771C119.882 122.771 113.338 130.266 113.179 130.006C113.02 129.746 113.445 132.34 113.445 132.34L114.687 132.063L115.165 133.674L117.357 133.266L118.277 135.515L120.078 134.641L121.153 136.222Z" fill="#2D2E2C"/>
<path fill-rule="evenodd" clip-rule="evenodd" d="M119.877 122.759L123.483 119.032C123.483 119.032 123.804 124.046 123.749 124.104C123.693 124.162 119.877 122.759 119.877 122.759Z" fill="#106B95"/>
<path fill-rule="evenodd" clip-rule="evenodd" d="M35.6922 216.501L53.0487 216.375C53.0487 216.375 53.2064 240.591 51.53 241.099C49.8537 241.606 28.4781 247.579 26.3908 245.679C24.1959 243.683 21.1473 240.949 26.0641 235.228C26.0641 235.228 29.7482 231.527 40.8488 232.949L35.6922 216.501Z" fill="#2D2E2D"/>
<path fill-rule="evenodd" clip-rule="evenodd" d="M80.6327 210.708L66.7009 214.62C66.7009 214.62 72.1731 234.054 73.6332 234.073C75.0933 234.092 93.5961 233.933 94.8288 231.929C96.1256 229.823 97.9354 226.928 92.6743 223.482C92.6743 223.482 88.8678 221.37 80.3048 225.075L80.6327 210.708Z" fill="#2D2E2D"/>
<path d="M447 16L275.5 3L267.5 135.5L444.5 155L447 16Z" fill="#F6EDE0"/>
<path fill-rule="evenodd" clip-rule="evenodd" d="M273.999 0.634089C274.513 0.184466 275.184 -0.0415305 275.865 0.00629989L447.62 12.0734C448.982 12.1691 450.029 13.3174 449.999 14.6827L446.942 155.116C446.926 155.834 446.61 156.512 446.07 156.986C445.53 157.459 444.816 157.684 444.102 157.605L267.132 138.083C265.774 137.933 264.773 136.743 264.858 135.379L273.131 2.40088C273.173 1.71973 273.486 1.08371 273.999 0.634089ZM278.08 5.2942L270.119 133.261L441.884 152.209L444.828 17.0096L278.08 5.2942Z" fill="#2D2E2C"/>
<path fill-rule="evenodd" clip-rule="evenodd" d="M311.513 231.101C311.513 231.102 311.513 231.102 309.358 230.522C307.202 229.942 307.202 229.942 307.202 229.941L307.271 229.687C307.316 229.52 307.383 229.271 307.471 228.946C307.646 228.296 307.903 227.344 308.23 226.133C308.885 223.71 309.822 220.25 310.951 216.102C313.208 207.806 316.232 196.754 319.299 185.735C322.365 174.718 325.477 163.723 327.908 155.543C329.122 151.457 330.174 148.051 330.968 145.69C331.362 144.519 331.709 143.557 331.992 142.886C332.124 142.571 332.285 142.218 332.467 141.925C332.538 141.81 332.73 141.507 333.05 141.242C333.212 141.108 333.569 140.845 334.101 140.744C334.601 140.648 335.121 140.723 335.575 140.959C335.622 140.972 335.688 140.99 335.78 141.012C336.093 141.087 336.558 141.18 337.175 141.288C338.402 141.503 340.107 141.758 342.146 142.038C346.217 142.597 351.531 143.245 356.817 143.861C362.101 144.477 367.343 145.059 371.265 145.488C373.226 145.702 374.857 145.878 375.997 146C376.567 146.061 377.015 146.109 377.319 146.141C377.472 146.158 377.588 146.17 377.667 146.178L377.785 146.191C377.786 146.191 377.786 146.191 377.551 148.411L377.786 146.191C378.758 146.294 379.55 147.017 379.741 147.976L399.017 244.966C399.257 246.175 398.472 247.35 397.263 247.59C396.054 247.83 394.879 247.045 394.638 245.836L375.682 150.456C375.63 150.451 375.576 150.445 375.521 150.439C374.379 150.317 372.745 150.14 370.78 149.926C366.852 149.496 361.598 148.913 356.301 148.295C351.006 147.678 345.656 147.026 341.538 146.461C339.483 146.179 337.713 145.915 336.404 145.685C336.171 145.644 335.949 145.604 335.74 145.564C335.583 145.992 335.403 146.509 335.199 147.114C334.431 149.396 333.398 152.74 332.187 156.815C329.768 164.956 326.664 175.921 323.6 186.932C320.536 197.94 317.515 208.983 315.259 217.274C314.131 221.42 313.194 224.877 312.54 227.298C312.212 228.508 311.956 229.459 311.781 230.108C311.693 230.432 311.626 230.681 311.581 230.848L311.513 231.101ZM335.505 140.938C335.458 140.922 335.468 140.922 335.515 140.941C335.511 140.94 335.508 140.939 335.505 140.938ZM308.778 232.678C307.587 232.357 306.882 231.133 307.202 229.942L309.358 230.522L311.513 231.102C311.193 232.292 309.968 232.998 308.778 232.678Z" fill="#2D2E2C"/>
<path d="M381.454 117.55C394.578 112.787 400.781 96.7045 395.309 81.6294C389.837 66.5543 374.763 58.1949 361.639 62.9583C348.516 67.7217 342.313 83.8039 347.784 98.8791C353.256 113.954 368.331 122.314 381.454 117.55Z" fill="#F3C545"/>
<path fill-rule="evenodd" clip-rule="evenodd" d="M368.192 117.88C368.263 117.727 383.358 118.796 391.316 110.032C391.316 110.032 396.552 114.882 392.711 119.711C392.711 119.711 396.562 124.787 395.788 128.837C394.842 133.802 392.033 135.334 386.946 137.026C382.4 138.538 371.296 139.208 371.998 126.516C371.998 126.516 366.127 122.353 368.192 117.88Z" fill="#106B95"/>
<path fill-rule="evenodd" clip-rule="evenodd" d="M371.891 127.529C371.89 127.529 371.89 127.529 371.917 127.006C371.944 126.482 371.943 126.482 371.943 126.482L371.944 126.482L371.947 126.482L371.965 126.483C371.981 126.484 372.006 126.485 372.041 126.485C372.109 126.487 372.213 126.489 372.351 126.488C372.627 126.487 373.037 126.478 373.568 126.444C374.628 126.376 376.167 126.21 378.064 125.816C381.857 125.028 387.082 123.327 392.779 119.676L393.345 120.559C387.525 124.288 382.177 126.032 378.277 126.842C376.327 127.247 374.739 127.419 373.634 127.49C373.082 127.525 372.65 127.535 372.355 127.536C372.207 127.537 372.093 127.535 372.015 127.533C371.976 127.532 371.946 127.531 371.925 127.53C371.914 127.53 371.906 127.53 371.9 127.529L371.893 127.529L371.891 127.529L371.891 127.529Z" fill="white"/>
<path fill-rule="evenodd" clip-rule="evenodd" d="M382.108 83.6519C384.277 80.9246 387.378 80.9305 388.731 81.5723L388.422 82.2253L388.731 81.5721C388.731 81.5721 388.731 81.5722 388.731 81.5723C390.192 82.2641 391.163 83.0956 391.71 84.0598C392.263 85.0348 392.334 86.0599 392.155 87.0357C391.98 87.9965 391.559 88.931 391.101 89.774C390.797 90.3344 390.453 90.8944 390.142 91.4016C389.992 91.6461 389.849 91.8784 389.722 92.0925C389.722 92.0924 389.722 92.0924 389.722 92.0923L389.101 91.7239L389.722 92.0925C388.707 93.8069 387.484 94.9273 386.06 95.675C384.715 96.3806 383.223 96.7364 381.632 96.9793C381.563 96.4845 381.503 96.0063 381.454 95.5442C382.964 95.3113 384.26 94.9871 385.388 94.395C386.563 93.7781 387.593 92.8513 388.479 91.3555L388.479 91.3552C388.629 91.1025 388.784 90.8507 388.94 90.5963C389.239 90.1094 389.544 89.6133 389.831 89.0846C390.261 88.2923 390.598 87.5149 390.734 86.7755C390.866 86.051 390.801 85.3874 390.453 84.773C390.098 84.1478 389.402 83.4893 388.112 82.8785L388.112 82.8783C387.327 82.5059 384.964 82.3835 383.239 84.5517C381.866 86.2787 380.818 89.563 381.454 95.5442C381.369 95.5573 381.283 95.5701 381.197 95.5827C380.818 95.6378 380.426 95.6877 380.021 95.7355C379.354 89.5217 380.403 85.7954 382.108 83.6519ZM380.2 97.171C380.608 97.1222 381.01 97.0706 381.405 97.0131C381.481 97.0021 381.557 96.9908 381.632 96.9793C381.803 98.1838 382.036 99.4869 382.342 100.896C383.262 105.134 385.058 107.54 386.641 108.956C387.437 109.668 388.192 110.141 388.784 110.474C388.979 110.583 389.14 110.669 389.289 110.749C389.38 110.797 389.466 110.843 389.553 110.89C389.658 110.948 389.763 111.008 389.855 111.068C389.935 111.12 390.063 111.209 390.166 111.335L389.045 112.248C389.067 112.275 389.085 112.291 389.091 112.296C389.088 112.294 389.079 112.287 389.064 112.277C389.021 112.249 388.957 112.212 388.859 112.158C388.8 112.126 388.725 112.086 388.64 112.041C388.478 111.954 388.278 111.847 388.076 111.734C387.427 111.369 386.576 110.838 385.677 110.033C383.868 108.414 381.914 105.738 380.929 101.203C380.617 99.7628 380.376 98.421 380.2 97.171ZM370.288 98.8921C373.418 97.9158 376.196 97.6127 378.721 97.3373C379.224 97.2825 379.717 97.2287 380.2 97.171M371.011 97.1773C373.846 96.4118 376.425 96.131 378.675 95.8861C379.138 95.8356 379.587 95.7868 380.021 95.7355M371.011 97.1773C371.663 95.3684 371.916 93.6941 371.928 92.2013C371.957 88.7698 370.714 86.387 370.321 85.6478C370.316 85.6349 370.308 85.6185 370.3 85.5986C370.278 85.5492 370.246 85.4788 370.205 85.3915C370.123 85.217 370.003 84.9734 369.85 84.6921C369.547 84.1354 369.1 83.4059 368.541 82.773C367.996 82.1558 367.264 81.5374 366.375 81.3637C365.412 81.1755 364.46 81.5411 363.605 82.4909L363.564 82.5363L363.532 82.588L364.142 82.9744C363.532 82.588 363.531 82.5885 363.531 82.5889L363.53 82.5901L363.528 82.5929L363.524 82.6004C363.52 82.6064 363.515 82.6141 363.51 82.6236C363.498 82.6425 363.483 82.6685 363.464 82.7014C363.427 82.767 363.377 82.8602 363.318 82.9794C363.2 83.2175 363.047 83.5604 362.898 83.9958C362.601 84.8664 362.317 86.112 362.359 87.6308C362.444 90.6618 363.824 94.6545 368.692 98.8448C367.822 100.485 366.574 102.237 364.815 104.066C364.024 104.889 363.289 105.458 362.616 105.836C362.492 105.697 362.368 105.56 362.244 105.424C360.065 103.025 357.899 100.892 356.394 99.928C356.015 99.6854 355.633 99.4862 355.271 99.3895C354.921 99.2959 354.432 99.2603 354.027 99.5884C353.637 99.9044 353.541 100.387 353.534 100.786C353.526 101.207 353.61 101.715 353.766 102.3L353.766 102.301C353.811 102.468 353.925 102.737 354.072 103.034C354.227 103.348 354.443 103.74 354.716 104.164C355.259 105.005 356.053 106.006 357.085 106.764C358.125 107.527 359.438 108.062 360.977 107.888C361.391 107.841 361.813 107.744 362.242 107.591C364.063 109.663 365.867 111.879 367.293 113.76C368.145 114.886 368.856 115.883 369.352 116.653C369.601 117.039 369.788 117.357 369.912 117.598C369.973 117.719 370.013 117.81 370.037 117.874C370.051 117.913 370.055 117.931 370.055 117.931C370.055 117.931 370.052 117.916 370.051 117.889L371.496 117.849C371.491 117.67 371.44 117.502 371.394 117.377C371.344 117.24 371.276 117.093 371.199 116.941C371.045 116.639 370.829 116.276 370.567 115.87C370.044 115.057 369.309 114.027 368.445 112.887C367.068 111.07 365.346 108.949 363.592 106.939C364.329 106.488 365.085 105.871 365.857 105.068C367.926 102.915 369.345 100.84 370.288 98.8921M361.173 106.394C358.986 103.986 356.937 101.992 355.615 101.145C355.34 100.97 355.129 100.865 354.979 100.811C354.979 100.812 354.979 100.813 354.979 100.814C354.974 101.039 355.022 101.399 355.163 101.928C355.163 101.928 355.163 101.929 355.163 101.929L354.464 102.115L355.163 101.928M355.163 101.928C355.163 101.928 355.163 101.928 355.163 101.929C355.165 101.935 355.179 101.977 355.214 102.06C355.25 102.146 355.301 102.259 355.367 102.393C355.5 102.661 355.689 103.005 355.931 103.38C356.419 104.136 357.1 104.982 357.94 105.598C358.773 106.209 359.73 106.575 360.814 106.452C360.931 106.439 361.051 106.42 361.173 106.394M355 100.637C355 100.637 355 100.638 354.999 100.64C355 100.638 355 100.637 355 100.637ZM354.812 100.769C354.808 100.77 354.805 100.769 354.805 100.769C354.805 100.769 354.807 100.769 354.812 100.769ZM369.337 97.4894C370.175 95.5093 370.47 93.7202 370.483 92.1892C370.509 89.082 369.372 86.9429 369.032 86.3013L369.015 86.2699L369.002 86.2398L369.002 86.2393L369.001 86.2379L368.997 86.2278C368.993 86.2183 368.987 86.2033 368.978 86.1832C368.96 86.143 368.933 86.0827 368.897 86.0061C368.825 85.8527 368.718 85.635 368.581 85.3831C368.303 84.8735 367.916 84.2485 367.458 83.7298C366.986 83.1953 366.519 82.8646 366.098 82.7824C365.761 82.7165 365.308 82.7829 364.726 83.4071C364.725 83.4091 364.724 83.4111 364.722 83.4133C364.698 83.4572 364.66 83.527 364.613 83.621C364.52 83.8093 364.392 84.094 364.266 84.4633C364.014 85.2023 363.767 86.2749 363.804 87.5905C363.874 90.1054 364.982 93.6297 369.337 97.4894Z" fill="white"/>
<path fill-rule="evenodd" clip-rule="evenodd" d="M339.862 90.51C339.862 90.51 330.465 92.1346 327.377 90.7441C324.69 89.5342 323.49 86.371 324.701 83.683C325.911 80.9964 329.074 79.7979 331.761 81.0078C334.849 82.3982 339.862 90.51 339.862 90.51Z" fill="white"/>
<path fill-rule="evenodd" clip-rule="evenodd" d="M338.582 74.5294C338.582 74.5294 329.085 75.3938 326.119 73.7598C323.538 72.3379 322.596 69.0886 324.019 66.5065C325.44 63.9258 328.69 62.9853 331.271 64.4071C334.237 66.0411 338.582 74.5294 338.582 74.5294Z" fill="white"/>
<path fill-rule="evenodd" clip-rule="evenodd" d="M350.476 64.5586C350.476 64.5586 341.1 62.8175 338.687 60.441C336.588 58.3731 336.562 54.9902 338.631 52.8901C340.698 50.791 344.081 50.7661 346.181 52.834C348.593 55.2105 350.476 64.5586 350.476 64.5586Z" fill="white"/>
<path fill-rule="evenodd" clip-rule="evenodd" d="M367.239 59.3497C367.239 59.3497 361.155 52.0063 360.824 48.6359C360.537 45.7032 362.684 43.089 365.618 42.8017C368.551 42.5144 371.164 44.6624 371.452 47.5951C371.782 50.9654 367.239 59.3497 367.239 59.3497Z" fill="white"/>
<path fill-rule="evenodd" clip-rule="evenodd" d="M381.747 61.5228C381.747 61.5228 379.878 52.1712 381.187 49.0481C382.326 46.3305 385.457 45.0489 388.176 46.1887C390.893 47.3279 392.174 50.459 391.035 53.1766C389.725 56.2997 381.747 61.5228 381.747 61.5228Z" fill="white"/>
<path fill-rule="evenodd" clip-rule="evenodd" d="M396.238 68.6972C396.238 68.6972 396.823 59.1785 398.888 56.4943C400.684 54.1586 404.039 53.7206 406.375 55.5179C408.711 57.3144 409.148 60.669 407.351 63.0047C405.287 65.6889 396.238 68.6972 396.238 68.6972Z" fill="white"/>
<path fill-rule="evenodd" clip-rule="evenodd" d="M400.492 80.931C400.492 80.931 404.634 72.3409 407.561 70.6371C410.108 69.1545 413.378 70.0179 414.862 72.5655C416.344 75.1119 415.48 78.3826 412.933 79.8652C410.007 81.5689 400.492 80.931 400.492 80.931Z" fill="white"/>
<path fill-rule="evenodd" clip-rule="evenodd" d="M155.659 47.1559C155.582 36.9813 165.13 31.9039 171.241 35.6616L171 36.0526L171.241 35.6616C173.743 37.2004 174.915 40.1711 175.308 43.6674C175.703 47.1773 175.328 51.329 174.628 55.3951C174.084 58.5558 173.339 61.6835 172.595 64.4434C173.05 64.7514 173.419 65.1974 173.746 65.7322C174.15 66.3912 174.516 67.2274 174.908 68.1956C175.052 68.5519 175.201 68.9285 175.357 69.3248C176.057 71.0983 176.913 73.2663 178.221 75.7771C181.413 81.9042 187.304 90.0783 200.114 99.1486C200.651 99.5288 201.783 100.097 203.418 100.825C205.039 101.547 207.115 102.411 209.512 103.382C211.705 104.27 214.161 105.248 216.777 106.288L217.508 106.579C220.396 107.729 223.462 108.95 226.565 110.21C228.541 111.011 230.532 111.829 232.503 112.653C232.502 112.648 232.502 112.643 232.501 112.637C231.552 105.695 232.186 98.5787 235.117 92.8662C238.059 87.132 243.299 82.8494 251.458 81.5891C262.13 79.9407 274.356 84.8946 283.405 91.3206C284.146 91.8468 284.867 92.3836 285.565 92.9281C283.915 87.8389 282.448 82.2663 281.51 76.9989C280.469 71.1518 280.071 65.6358 280.824 61.569C282.161 54.3635 290.773 45.9981 303.791 44.0513C316.853 42.0977 334.359 46.5837 353.653 65.0432C353.836 65.2185 353.843 65.5091 353.667 65.6923C353.492 65.8756 353.202 65.882 353.018 65.7067C333.873 47.3897 316.639 43.0581 303.926 44.9594C291.169 46.8673 282.971 55.0292 281.727 61.7365C281.004 65.6374 281.378 71.0214 282.414 76.8379C283.427 82.5236 285.063 88.5796 286.882 93.9877C289.864 96.4627 292.352 99.0586 294.11 101.533C295.311 103.225 296.183 104.876 296.63 106.406C297.077 107.935 297.109 109.377 296.581 110.615L296.581 110.615C296.382 111.082 296.076 111.467 295.612 111.586C295.156 111.703 294.709 111.518 294.328 111.246C293.568 110.702 292.722 109.559 291.842 108.047C290.063 104.987 288.001 100.146 286.127 94.6224C286.116 94.5913 286.106 94.5602 286.095 94.5291C285.077 93.6927 284 92.8694 282.874 92.0692C273.913 85.7063 261.931 80.9006 251.598 82.4965C243.729 83.712 238.742 87.8134 235.934 93.2854C233.116 98.7791 232.478 105.691 233.411 112.513C233.436 112.698 233.462 112.883 233.49 113.067C237.362 114.697 241.132 116.347 244.52 117.948C249.897 120.491 254.366 122.934 256.752 125.003C259.464 127.355 260.907 129.512 261.416 131.453C261.93 133.414 261.476 135.104 260.504 136.461C259.542 137.803 258.083 138.808 256.579 139.464C255.076 140.121 253.482 140.449 252.214 140.399C247.396 140.208 242.933 136.662 239.468 131.54C236.171 126.667 233.716 120.284 232.661 113.715C230.528 112.82 228.365 111.931 226.219 111.06C223.12 109.802 220.057 108.582 217.168 107.432L216.433 107.14C213.819 106.1 211.361 105.122 209.167 104.233C206.768 103.261 204.68 102.393 203.044 101.664C201.423 100.942 200.207 100.339 199.584 99.898L199.584 99.898C186.659 90.7468 180.669 82.4629 177.407 76.2013C176.075 73.6439 175.199 71.4247 174.498 69.6501C174.343 69.258 174.197 68.8876 174.057 68.5401C173.665 67.5727 173.323 66.7996 172.963 66.2117C172.753 65.8691 172.546 65.604 172.332 65.405C171.429 68.6554 170.56 71.3015 170.089 72.7382C169.997 73.019 169.92 73.2537 169.861 73.4376C168.378 78.0509 165.024 80.1981 163.422 81.1979C161.786 82.2187 160.929 82.6493 160.075 83.0698C160.039 83.0876 160.003 83.1054 159.966 83.1232C159.162 83.5188 158.333 83.9263 156.793 84.8549C155.933 85.3736 152.108 87.6811 148.699 91.4153C145.287 95.1523 142.345 100.257 143.119 106.39C143.309 107.893 143.594 109.234 143.956 110.427C147.251 110.043 150.445 109.986 153.045 110.478C154.71 110.793 156.168 111.34 157.252 112.204C158.349 113.078 159.045 114.263 159.187 115.793C159.323 117.253 158.324 118.472 156.918 119.189C155.499 119.913 153.568 120.191 151.571 119.76C148.402 119.075 145.115 116.624 143.318 111.431C142.655 111.518 141.986 111.618 141.317 111.73C137.12 112.428 132.939 113.565 129.782 114.709C128.202 115.281 126.891 115.851 125.967 116.361C125.504 116.617 125.152 116.85 124.916 117.052C124.798 117.153 124.717 117.238 124.667 117.306C124.62 117.371 124.611 117.403 124.61 117.406C124.61 117.406 124.61 117.406 124.61 117.406C124.567 117.656 124.33 117.824 124.08 117.781C123.83 117.738 123.662 117.501 123.705 117.251C123.766 116.897 124.037 116.595 124.319 116.354C124.622 116.095 125.033 115.828 125.523 115.557C126.506 115.014 127.866 114.426 129.469 113.846C132.679 112.683 136.914 111.531 141.167 110.824C141.789 110.72 142.412 110.626 143.034 110.543C142.677 109.335 142.396 107.992 142.208 106.505C141.386 99.9923 144.521 94.6286 148.021 90.7961C151.521 86.9622 155.438 84.5998 156.318 84.0692L156.319 84.0686L156.556 84.4617L156.319 84.0686C157.892 83.1199 158.747 82.6995 159.563 82.2985C159.598 82.2809 159.634 82.2635 159.669 82.246C160.504 81.8353 161.333 81.4195 162.936 80.419C164.504 79.4399 167.609 77.441 168.987 73.1566L169.424 73.2971L168.987 73.1566C169.046 72.9703 169.124 72.7338 169.217 72.4514C169.701 70.975 170.596 68.2466 171.516 64.9094C164.46 61.4494 160.503 57.8167 158.305 54.6435C156.069 51.415 155.67 48.6871 155.659 47.1559ZM171.762 64.0068C164.911 60.6223 161.133 57.1127 159.06 54.1207C156.941 51.0612 156.587 48.5181 156.577 47.1489C156.504 37.5225 165.406 33.1513 170.76 36.4437C172.9 37.7595 174.013 40.3721 174.395 43.77C174.776 47.1543 174.417 51.2075 173.723 55.2394C173.197 58.2942 172.482 61.3189 171.762 64.0068ZM144.25 111.318C145.97 116.127 149.005 118.266 151.765 118.862C153.573 119.253 155.285 118.991 156.501 118.371C157.73 117.744 158.36 116.814 158.273 115.878C158.155 114.608 157.59 113.647 156.68 112.922C155.756 112.186 154.459 111.68 152.874 111.38C150.444 110.92 147.422 110.959 144.25 111.318ZM233.662 114.136C234.745 120.385 237.108 126.413 240.228 131.026C243.63 136.054 247.865 139.308 252.251 139.481C253.353 139.525 254.808 139.236 256.212 138.623C257.615 138.011 258.92 137.095 259.758 135.926C260.585 134.771 260.966 133.359 260.528 131.685C260.084 129.992 258.787 127.983 256.15 125.697L256.451 125.35L256.15 125.697C253.872 123.721 249.512 121.324 244.127 118.779C240.908 117.257 237.34 115.69 233.662 114.136ZM287.47 95.6987C289.203 100.616 291.046 104.852 292.636 107.585C293.513 109.094 294.277 110.079 294.863 110.499C295.155 110.708 295.315 110.714 295.385 110.696C295.447 110.68 295.587 110.606 295.737 110.255C296.155 109.274 296.158 108.064 295.749 106.663C295.339 105.263 294.526 103.705 293.361 102.065C291.891 99.9951 289.88 97.8203 287.47 95.6987Z" fill="#106B95"/>
</svg>
