<svg width="470" height="412" viewBox="0 0 470 412" fill="none" xmlns="http://www.w3.org/2000/svg">
<path d="M308.015 313.545C386.044 313.545 449.299 250.29 449.299 172.261C449.299 94.2316 386.044 30.9766 308.015 30.9766C229.986 30.9766 166.731 94.2316 166.731 172.261C166.731 250.29 229.986 313.545 308.015 313.545Z" fill="#F3C545"/>
<path fill-rule="evenodd" clip-rule="evenodd" d="M286.481 53.5442C222.528 53.5442 170.621 107.257 170.621 173.595C170.621 239.932 222.528 293.645 286.481 293.645C350.433 293.645 402.34 239.932 402.34 173.595C402.34 107.257 350.433 53.5442 286.481 53.5442ZM168.504 173.595C168.504 106.159 221.289 51.4268 286.481 51.4268C351.672 51.4268 404.458 106.159 404.458 173.595C404.458 241.031 351.672 295.763 286.481 295.763C221.289 295.763 168.504 241.031 168.504 173.595Z" fill="#2D2E2C"/>
<path fill-rule="evenodd" clip-rule="evenodd" d="M285.236 36.9596C207.072 36.9596 143.761 97.8812 143.761 172.967C143.761 248.053 207.072 308.974 285.236 308.974C363.4 308.974 426.711 248.053 426.711 172.967C426.711 97.8812 363.4 36.9596 285.236 36.9596ZM142.172 172.967C142.172 96.946 206.254 35.3713 285.236 35.3713C364.218 35.3713 428.299 96.946 428.299 172.967C428.299 248.988 364.218 310.563 285.236 310.563C206.254 310.563 142.172 248.988 142.172 172.967Z" fill="#2D2E2C"/>
<path fill-rule="evenodd" clip-rule="evenodd" d="M286.139 47.7775C214.83 47.7775 157.024 105.479 157.024 176.656C157.024 247.832 214.83 305.534 286.139 305.534C357.448 305.534 415.254 247.832 415.254 176.656C415.254 105.479 357.448 47.7775 286.139 47.7775ZM155.967 176.656C155.967 104.894 214.248 46.7209 286.139 46.7209C358.029 46.7209 416.31 104.894 416.31 176.656C416.31 248.418 358.029 306.591 286.139 306.591C214.248 306.591 155.967 248.418 155.967 176.656Z" fill="#2D2E2C"/>
<path fill-rule="evenodd" clip-rule="evenodd" d="M294.33 39.7496C223.576 39.7496 166.214 97.447 166.214 168.627C166.214 239.807 223.576 297.505 294.33 297.505C365.083 297.505 422.445 239.807 422.445 168.627C422.445 97.447 365.083 39.7496 294.33 39.7496ZM165.156 168.627C165.156 96.8685 222.986 38.6913 294.33 38.6913C365.673 38.6913 423.504 96.8685 423.504 168.627C423.504 240.386 365.673 298.563 294.33 298.563C222.986 298.563 165.156 240.386 165.156 168.627Z" fill="#2D2E2C"/>
<path d="M286.249 245.042C286.249 245.042 279.411 255.3 259.86 244.143M287.83 232.281C287.83 237.977 283.103 242.594 277.272 242.594C271.441 242.594 266.715 237.977 266.715 232.281C266.715 226.586 271.441 221.968 277.272 221.968C283.103 221.968 287.83 226.586 287.83 232.281Z" stroke="#2D2E2C" stroke-width="2" stroke-miterlimit="1.5" stroke-linecap="round"/>
<path d="M314.191 166.639C333.51 166.639 349.171 151.206 349.171 132.169C349.171 113.131 333.51 97.6982 314.191 97.6982C294.873 97.6982 279.212 113.131 279.212 132.169C279.212 151.206 294.873 166.639 314.191 166.639Z" fill="white"/>
<path d="M309.596 148.385C315.684 148.385 320.62 143.287 320.62 136.997C320.62 130.708 315.684 125.609 309.596 125.609C303.508 125.609 298.572 130.708 298.572 136.997C298.572 143.287 303.508 148.385 309.596 148.385Z" fill="#2D2E2C"/>
<path d="M320.736 85.4747C320.736 85.4747 349.916 82.378 346.976 102.037" stroke="#2D2E2C" stroke-width="10" stroke-miterlimit="1.5" stroke-linecap="round" stroke-linejoin="round"/>
<path d="M265.649 160.232C281.446 160.232 294.252 147.613 294.252 132.045C294.252 116.478 281.446 103.858 265.649 103.858C249.852 103.858 237.045 116.478 237.045 132.045C237.045 147.613 249.852 160.232 265.649 160.232Z" fill="white"/>
<path d="M275.114 140.475C279.699 140.475 283.416 136.951 283.416 132.603C283.416 128.256 279.699 124.731 275.114 124.731C270.528 124.731 266.811 128.256 266.811 132.603C266.811 136.951 270.528 140.475 275.114 140.475Z" fill="#2D2E2C"/>
<path d="M231.25 103.871C231.25 103.871 242.632 77.6333 264.242 86.4602" stroke="#2D2E2C" stroke-width="10" stroke-miterlimit="1.5" stroke-linecap="round" stroke-linejoin="round"/>
<path fill-rule="evenodd" clip-rule="evenodd" d="M218.158 304.636L266.72 319.592C266.72 319.592 234.934 393.389 234.864 393.727C234.793 394.067 166.041 384.258 160.31 385.201C154.579 386.145 150.926 366.901 160.137 359.766C169.348 352.628 194.325 343.335 213.984 355.868C213.984 355.868 216.587 302.341 218.158 304.636Z" fill="#2D2E2C" stroke="#2D2E2C" stroke-width="1.21" stroke-miterlimit="1.5" stroke-linecap="round" stroke-linejoin="round"/>
<path fill-rule="evenodd" clip-rule="evenodd" d="M363.132 313.885L312.93 321.744C312.93 321.744 333.839 399.328 333.861 399.673C333.882 400.019 403.33 400.141 408.868 401.893C414.404 403.647 420.771 385.123 412.675 376.744C404.58 368.363 381.187 355.594 359.938 365.188C359.938 365.188 365.015 311.838 363.132 313.885Z" fill="#2D2E2C" stroke="#2D2E2C" stroke-width="1.21" stroke-miterlimit="1.5" stroke-linecap="round" stroke-linejoin="round"/>
<path fill-rule="evenodd" clip-rule="evenodd" d="M445.481 227.123C445.481 227.123 437.76 225.961 437.712 226.042C437.663 226.121 417.269 240.22 416.886 259.625C416.886 259.625 418.292 279.74 439.441 287.377C439.441 287.377 458.657 292.364 467.676 274.232C467.676 274.232 470.256 269.718 469.22 267.656C468.184 265.592 465.652 265.084 465.734 265.127C465.817 265.17 468.501 259.213 465.533 257.205C462.562 255.199 460.305 255.732 459.236 256.311C459.236 256.311 459.228 249.844 455.74 249.481C452.253 249.115 450.623 249.63 450.699 249.709C450.776 249.79 446.952 251.908 445.723 256.382C444.806 259.726 437.549 236.389 445.481 227.123Z" fill="#2D2E2C"/>
<path fill-rule="evenodd" clip-rule="evenodd" d="M107.925 112.619C107.925 112.619 114.245 108.736 116.867 112.717C119.489 116.698 137.275 133.482 134.882 151.653C134.882 151.653 154.343 174.266 152.162 183.163C152.162 183.163 151.55 194.678 139.122 195.92C139.122 195.92 136.132 203.52 123.956 202.115C123.956 202.115 104.064 195.971 107.675 183.285C107.675 183.285 94.1935 177.712 97.8171 164.874C97.8171 164.874 82.5413 155.337 98.9427 145.578C98.9427 145.578 118.86 142.447 129.633 157.058C129.633 157.058 132.491 162.396 126.418 165.628C126.418 165.628 143.178 171.415 131.537 183.961C131.537 183.961 138.725 186.114 139.172 191.814C139.619 197.517 139.586 177.219 139.586 177.219L127.353 150.497C127.353 150.497 110.924 139.363 108.296 132.504C108.296 132.504 101.377 116.456 107.925 112.619Z" fill="#2D2E2C"/>
<path fill-rule="evenodd" clip-rule="evenodd" d="M146.585 181.52C146.585 181.52 145.765 191.355 135.558 193.904C135.558 193.904 130.346 185.581 125.216 187.251C125.216 187.251 132.849 181.955 130.958 175.899C130.958 175.899 130.804 169.173 123.147 167.134C123.147 167.134 125.427 161.826 124.968 158.734C124.55 155.924 119.985 149.629 108.644 148.134C108.644 148.134 100.687 146.266 98.7002 148.901L83.4013 125.905C83.4013 125.905 106.17 114.057 106.319 114.071C106.467 114.086 102.754 134.081 130.187 147.989C130.187 147.989 146.354 181.091 146.585 181.52Z" fill="#106B95"/>
<path fill-rule="evenodd" clip-rule="evenodd" d="M64.3222 0.833725C99.8223 0.833725 128.644 29.6778 128.644 65.2057C128.644 100.733 99.8223 129.577 64.3222 129.577C28.8218 129.577 0 100.733 0 65.2057C0 29.6778 28.8218 0.833725 64.3222 0.833725ZM64.3222 13.7082C92.7223 13.7082 115.78 36.7833 115.78 65.2057C115.78 93.6278 92.7223 116.703 64.3222 116.703C35.9218 116.703 12.8645 93.6278 12.8645 65.2057C12.8645 36.7833 35.9218 13.7082 64.3222 13.7082Z" fill="#106B95"/>
<path d="M45.7976 27.4936C45.7976 27.4936 98.4872 7.34699 109.171 64.2266" stroke="#106B95" stroke-width="4" stroke-miterlimit="1.5" stroke-linecap="round" stroke-linejoin="round"/>
<path d="M107.735 81.8069C110.975 81.8069 113.602 79.1799 113.602 75.9394C113.602 72.6989 110.975 70.0719 107.735 70.0719C104.494 70.0719 101.867 72.6989 101.867 75.9394C101.867 79.1799 104.494 81.8069 107.735 81.8069Z" fill="#106B95"/>
</svg>
